<svg width="24" height="24" viewBox="0 0 24 24" fill="none" xmlns="http://www.w3.org/2000/svg">
<path d="M21.3 12.2305H17.82C16.84 12.2305 15.97 12.7705 15.53 13.6505L14.69 15.3105C14.49 15.7105 14.09 15.9605 13.65 15.9605H10.37C10.06 15.9605 9.62 15.8905 9.33 15.3105L8.49 13.6605C8.2774 13.2348 7.95067 12.8766 7.54629 12.6258C7.14192 12.3751 6.67581 12.2417 6.2 12.2405H2.7C2.31 12.2405 2 12.5505 2 12.9405V16.2005C2 19.8305 4.18 22.0005 7.82 22.0005H16.2C19.63 22.0005 21.74 20.1205 22 16.7805V12.9305C22 12.5505 21.69 12.2305 21.3 12.2305Z" fill="white"/>
<path d="M16.19 1H7.81C4.17 1 2 3.17 2 6.81V9.85C2.22 9.77 2.46 9.73 2.7 9.73H6.2C7.75 9.73 9.14 10.59 9.83 11.98L10.58 13.45H13.44L14.19 11.97C14.5254 11.2948 15.0432 10.727 15.6848 10.3311C16.3264 9.93521 17.0661 9.72697 17.82 9.73H21.3C21.54 9.73 21.78 9.77 22 9.85V6.81C22 3.17 19.83 1 16.19 1ZM10.45 4.41H13.55C13.93 4.41 14.25 4.72 14.25 5.1C14.25 5.49 13.93 5.8 13.55 5.8H10.45C10.07 5.8 9.75 5.49 9.75 5.1C9.75263 4.91609 9.82754 4.7406 9.95853 4.61148C10.0895 4.48236 10.2661 4.40998 10.45 4.41ZM14.33 8.59H9.67C9.29 8.59 8.98 8.28 8.98 7.9C8.98 7.51 9.29 7.2 9.67 7.2H14.33C14.71 7.2 15.02 7.51 15.02 7.9C15.02 8.28 14.71 8.59 14.33 8.59Z" fill="white"/>
</svg>
