<svg width="18" height="21" viewBox="0 0 18 21" fill="none" xmlns="http://www.w3.org/2000/svg">
<path d="M17.5 6.85234C16.45 2.23234 12.42 0.152344 8.87998 0.152344H8.86998C5.33998 0.152344 1.29998 2.22234 0.249978 6.84234C-0.920022 12.0023 2.23998 16.3723 5.09998 19.1223C6.1137 20.1035 7.46918 20.6522 8.87998 20.6523C10.24 20.6523 11.6 20.1423 12.65 19.1223C15.51 16.3723 18.67 12.0123 17.5 6.85234ZM8.87998 11.8623C8.46631 11.8623 8.0567 11.7809 7.67453 11.6226C7.29235 11.4643 6.9451 11.2322 6.65259 10.9397C6.36009 10.6472 6.12806 10.3 5.96976 9.9178C5.81146 9.53562 5.72998 9.12601 5.72998 8.71234C5.72998 8.29868 5.81146 7.88907 5.96976 7.50689C6.12806 7.12472 6.36009 6.77746 6.65259 6.48496C6.9451 6.19245 7.29235 5.96043 7.67453 5.80212C8.0567 5.64382 8.46631 5.56234 8.87998 5.56234C9.71541 5.56234 10.5166 5.89422 11.1074 6.48496C11.6981 7.0757 12.03 7.87691 12.03 8.71234C12.03 9.54778 11.6981 10.349 11.1074 10.9397C10.5166 11.5305 9.71541 11.8623 8.87998 11.8623Z" fill="white"/>
</svg>
