<svg width="20" height="21" viewBox="0 0 20 21" fill="none" xmlns="http://www.w3.org/2000/svg">
<path d="M15.62 8.89653C15.4158 8.89653 15.2199 8.81541 15.0755 8.671C14.9311 8.5266 14.85 8.33075 14.85 8.12653C14.85 7.75653 14.48 6.98653 13.86 6.31653C13.25 5.66653 12.58 5.28653 12.02 5.28653C11.8158 5.28653 11.6199 5.20541 11.4755 5.061C11.3311 4.9166 11.25 4.72075 11.25 4.51653C11.25 4.09653 11.6 3.74653 12.02 3.74653C13.02 3.74653 14.07 4.28653 14.99 5.25653C15.85 6.16653 16.4 7.29653 16.4 8.11653C16.4 8.54653 16.05 8.89653 15.62 8.89653ZM19.23 8.89453C19.0258 8.89453 18.8299 8.81341 18.6855 8.669C18.5411 8.5246 18.46 8.32875 18.46 8.12453C18.46 4.57453 15.57 1.69453 12.03 1.69453C11.8258 1.69453 11.6299 1.61341 11.4855 1.469C11.3411 1.3246 11.26 1.12875 11.26 0.924531C11.26 0.504531 11.6 0.144531 12.02 0.144531C16.42 0.144531 20 3.72453 20 8.12453C20 8.54453 19.65 8.89453 19.23 8.89453ZM9.05 13.0945L7.2 14.9445C6.81 15.3345 6.19 15.3345 5.79 14.9545C5.68 14.8445 5.57 14.7445 5.46 14.6345C4.44877 13.6165 3.5161 12.5234 2.67 11.3645C1.85 10.2245 1.19 9.08453 0.71 7.95453C0.24 6.81453 0 5.72453 0 4.68453C0 4.00453 0.12 3.35453 0.36 2.75453C0.6 2.14453 0.98 1.58453 1.51 1.08453C2.15 0.454531 2.85 0.144531 3.59 0.144531C3.87 0.144531 4.15 0.204531 4.4 0.324531C4.66 0.444531 4.89 0.624531 5.07 0.884531L7.39 4.15453C7.57 4.40453 7.7 4.63453 7.79 4.85453C7.88 5.06453 7.93 5.27453 7.93 5.46453C7.93 5.70453 7.86 5.94453 7.72 6.17453C7.59 6.40453 7.4 6.64453 7.16 6.88453L6.4 7.67453C6.29 7.78453 6.24 7.91453 6.24 8.07453C6.24 8.15453 6.25 8.22453 6.27 8.30453C6.3 8.38453 6.33 8.44453 6.35 8.50453C6.53 8.83453 6.84 9.26453 7.28 9.78453C7.73 10.3045 8.21 10.8345 8.73 11.3645C8.83 11.4645 8.94 11.5645 9.04 11.6645C9.44 12.0545 9.45 12.6945 9.05 13.0945ZM19.97 16.4745C19.9687 16.8519 19.8833 17.2243 19.72 17.5645C19.55 17.9245 19.33 18.2645 19.04 18.5845C18.55 19.1245 18.01 19.5145 17.4 19.7645C17.39 19.7645 17.38 19.7745 17.37 19.7745C16.78 20.0145 16.14 20.1445 15.45 20.1445C14.43 20.1445 13.34 19.9045 12.19 19.4145C11.04 18.9245 9.89 18.2645 8.75 17.4345C8.36 17.1445 7.97 16.8545 7.6 16.5445L10.87 13.2745C11.15 13.4845 11.4 13.6445 11.61 13.7545C11.66 13.7745 11.72 13.8045 11.79 13.8345C11.87 13.8645 11.95 13.8745 12.04 13.8745C12.21 13.8745 12.34 13.8145 12.45 13.7045L13.21 12.9545C13.46 12.7045 13.7 12.5145 13.93 12.3945C14.16 12.2545 14.39 12.1845 14.64 12.1845C14.83 12.1845 15.03 12.2245 15.25 12.3145C15.47 12.4045 15.7 12.5345 15.95 12.7045L19.26 15.0545C19.52 15.2345 19.7 15.4445 19.81 15.6945C19.91 15.9445 19.97 16.1945 19.97 16.4745Z" fill="white"/>
</svg>
