<svg width="74" height="70" viewBox="0 0 74 70" fill="none" xmlns="http://www.w3.org/2000/svg">
<path d="M5.3335 48.0007C3.9585 48.0007 2.78141 47.4621 1.80225 46.385C0.823079 45.3079 0.333496 44.0132 0.333496 42.5007V5.83398C0.333496 4.32148 0.823079 3.02669 1.80225 1.94961C2.78141 0.872526 3.9585 0.333984 5.3335 0.333984H68.6668C70.0418 0.333984 71.2189 0.872526 72.1981 1.94961C73.1772 3.02669 73.6668 4.32148 73.6668 5.83398V42.5007C73.6668 44.0132 73.1772 45.3079 72.1981 46.385C71.2189 47.4621 70.0418 48.0007 68.6668 48.0007H5.3335ZM5.3335 5.83398V42.5007H68.6668V5.83398H5.3335ZM7.25016 60.834L7.00016 55.334L66.9168 51.8507L67.1668 57.3507L7.25016 60.834ZM7.00016 69.909V64.409H67.0002V69.909H7.00016ZM32.0002 34.2507C35.9359 34.2507 39.7254 33.502 43.3687 32.0048C47.0119 30.5076 50.2224 28.2007 53.0002 25.084C53.2779 27.3451 54.3057 29.102 56.0835 30.3548C57.8613 31.6076 59.8335 32.2951 62.0002 32.4173V15.9173C59.7779 16.1007 57.7641 16.8034 55.9585 18.0257C54.1529 19.2479 53.1391 21.0201 52.9168 23.3423C50.096 20.3705 46.8893 18.0845 43.2967 16.4843C39.7042 14.8841 35.9387 14.084 32.0002 14.084C27.8453 14.084 23.8483 14.8632 20.0091 16.4215C16.1698 17.9798 13.0002 20.5618 10.5002 24.1673C13.0002 27.7729 16.1698 30.3548 20.0091 31.9132C23.8483 33.4715 27.8453 34.2507 32.0002 34.2507Z" fill="white"/>
</svg>
