<svg width="80" height="82" viewBox="0 0 80 82" fill="none" xmlns="http://www.w3.org/2000/svg">
<path d="M29.6 75.0273H50.3V69.3615L53.9 67.8439C58.8333 65.753 62.8667 63.0213 66 59.6488C69.1333 56.2763 71.3667 52.6003 72.7 48.6208H7.2C8.53333 52.6003 10.8 56.2932 14 59.6994C17.2 63.1056 21.2 65.8204 26 67.8439L29.6 69.3615V75.0273ZM23.6 81.0978V73.2062C16.6 70.3733 11.0333 66.2589 6.9 60.8629C2.76667 55.4669 0.466667 49.3964 0 42.6515H7.2V8.35334L80 0.158203V5.21693L32.2 10.5792V19.3814H80V24.4401H32.2V42.6515H79.9C79.5 49.3964 77.2 55.4669 73 60.8629C68.8 66.2589 63.2333 70.3733 56.3 73.2062V81.0978H23.6ZM22.2 19.3814H27.2V11.085L22.2 11.6921V19.3814ZM12.2 19.3814H17.2V12.198L12.2 12.7726V19.3814ZM22.2 42.6515H27.2V24.4401H22.2V42.6515ZM12.2 42.6515H17.2V24.4401H12.2V42.6515Z" fill="white"/>
</svg>
