<svg width="51" height="61" viewBox="0 0 51 61" fill="none" xmlns="http://www.w3.org/2000/svg">
<path d="M10.7499 60.9173V32.934C7.86103 32.3763 5.4027 31.0456 3.37492 28.9418C1.34714 26.838 0.333252 24.3159 0.333252 21.3757V0.0839844H5.33325V21.3757H10.7499V0.0839844H15.7499V21.3757H21.1666V0.0839844H26.1666V21.3757C26.1666 24.3159 25.1527 26.838 23.1249 28.9418C21.0971 31.0456 18.6388 32.3763 15.7499 32.934V60.9173H10.7499ZM45.3333 60.9173V36.584H35.7499V13.3913C35.7499 9.38641 37.0833 6.16732 39.7499 3.73398C42.4166 1.30065 45.9444 0.0839844 50.3333 0.0839844V60.9173H45.3333Z" fill="white"/>
</svg>
